<?xml version="1.0" encoding="UTF-8"?>
<svg id="Layer_1" xmlns="http://www.w3.org/2000/svg" version="1.1" viewBox="0 0 200 200">
  <!-- Generator: Adobe Illustrator 30.0.0, SVG Export Plug-In . SVG Version: 2.1.1 Build 123)  -->
  <defs>
    <style>
      .st0 {
        fill: #c0d85b;
      }

      .st1 {
        fill: #22a070;
      }

      .st2 {
        fill: #7ec185;
      }
    </style>
  </defs>
  <path class="st0" d="M147.8,61.43l-58.58,52.72c-1.02.92-1.6,2.23-1.6,3.6v36.78c0,.67.8,1.03,1.3.58l72.2-64.98c.2-.18.3-.46.25-.72-1.78-10.41-6.15-19.94-12.41-27.9-.28-.36-.81-.4-1.14-.09Z"/>
  <path class="st1" d="M88.91,107.26l55.37-49.84c.33-.3.35-.82.04-1.13-3.66-3.71-7.78-6.97-12.28-9.67-.3-.18-.68-.14-.93.09l-41.89,37.7c-1.02.92-1.6,2.23-1.6,3.6v18.67c0,.67.8,1.03,1.3.58Z"/>
  <path class="st1" d="M80.68,103.1l-34.99-31.49c-.38-.34-.99-.23-1.23.22-2.62,5.15-4.53,10.71-5.63,16.56-.05.27.04.55.25.74l41.91,37.72c.5.45,1.3.1,1.3-.58v-19.57c0-1.37-.58-2.68-1.6-3.6Z"/>
  <path class="st2" d="M88.91,77.52l36.73-33.05c.42-.38.32-1.07-.2-1.3-7.77-3.48-16.38-5.43-25.44-5.43-4.02,0-7.94.38-11.75,1.11-.37.07-.63.4-.63.77v37.32c0,.67.8,1.03,1.3.58Z"/>
  <path class="st1" d="M91.1,160.32c-.49.44-.25,1.27.41,1.36,2.78.38,5.61.59,8.5.59,34.39,0,62.36-27.88,62.27-62.27,0-.06-.03-1.02-.06-1.94-.02-.67-.81-1-1.31-.56l-69.81,62.82Z"/>
  <path class="st2" d="M80.68,133.74l-41.56-37.4c-.48-.44-1.27-.12-1.3.53-.06,1.04-.09,2.08-.09,3.13,0,27.86,18.3,51.43,43.54,59.39.5.16,1.02-.23,1.02-.75v-21.29c0-1.37-.58-2.68-1.6-3.6Z"/>
  <path class="st0" d="M82.29,95.63v-54.26c0-.53-.52-.91-1.02-.75-13.74,4.33-25.41,13.29-33.2,25.06-.21.32-.16.76.13,1.02l32.8,29.52c.5.45,1.3.1,1.3-.58Z"/>
</svg>